<svg width="587" height="587" viewBox="0 0 587 587" fill="none" xmlns="http://www.w3.org/2000/svg">
<path d="M424.55 0C514.11 0 586.709 72.5989 586.709 162.159V424.55C586.709 514.11 514.11 586.709 424.55 586.709H162.159C72.5989 586.709 0 514.11 0 424.55V162.159C0 72.5989 72.5989 0 162.159 0H424.55Z" fill="#1860D8"/>
<path d="M294.683 312.855C302.651 305.167 315.279 305.306 323.107 313.135C331.029 321.056 331.029 333.917 323.107 341.839L304.934 360.012C304.562 360.385 304.422 360.944 304.655 361.643C304.934 362.342 305.494 362.808 306.146 362.901C328.932 366.023 350.786 376.414 368.307 393.935L409.313 434.941C417.141 442.769 417.141 455.49 409.313 463.319C401.484 471.147 388.763 471.147 380.935 463.319L339.929 422.313C313.089 395.426 269.614 395.379 242.913 422.08H242.867L242.82 422.173L198.273 462.62C190.211 469.935 177.816 469.656 170.128 461.921C162.067 453.859 162.16 440.719 170.407 432.797L294.73 312.855H294.683ZM120.874 175.532C128.889 167.518 141.936 167.518 149.951 175.532L190.631 216.212C233.174 258.756 233.361 327.766 191.003 370.124L149.672 411.456C141.797 419.331 129.029 419.331 121.154 411.456C113.279 403.581 113.279 390.813 121.154 382.938L162.579 341.513C189.279 314.812 189.186 271.383 162.346 244.497L120.874 203.025C113.279 195.429 113.279 183.128 120.874 175.579V175.532ZM432.891 174.694C440.766 166.819 453.534 166.819 461.409 174.694C469.284 182.569 469.284 195.336 461.409 203.165L419.984 244.636C393.283 271.337 393.376 314.766 420.217 341.652L461.688 383.124C469.284 390.72 469.284 403.021 461.688 410.57C453.674 418.585 440.626 418.585 432.612 410.57L391.932 369.891C349.388 327.347 349.202 258.336 391.559 215.979L432.891 174.647V174.694ZM173.203 122.784C181.032 114.956 193.753 114.956 201.581 122.784L242.587 163.79C269.427 190.63 312.903 190.723 339.603 164.023H339.65L339.696 163.93L384.243 123.483C392.305 116.167 404.7 116.447 412.388 124.182C420.45 132.243 420.356 145.384 412.109 153.305L287.787 273.247C279.818 280.936 267.144 280.843 259.315 273.014C251.394 265.093 251.394 252.232 259.315 244.31L277.488 226.137C277.861 225.764 278.001 225.205 277.768 224.506C277.535 223.807 276.976 223.341 276.277 223.248C253.537 220.126 231.636 209.735 214.116 192.214L173.11 151.208C165.282 143.38 165.282 130.659 173.11 122.831L173.203 122.784Z" fill="white"/>
</svg>
